<svg width="100%" height="200px" viewBox="0 0 1440 320" xmlns="http://www.w3.org/2000/svg">
  <path fill="rgba(255,255,255,0.35)" d="M0,64L60,64C120,64,240,64,360,85.3C480,107,600,149,720,160C840,171,960,149,1080,149.3C1200,149,1320,171,1380,181.3L1440,192L1440,320L1380,320C1320,320,1200,320,1080,320C960,320,840,320,720,320C600,320,480,320,360,320C240,320,120,320,60,320L0,320Z"></path>
  <path fill="rgba(255,255,255,0.55)" d="M0,128L60,133.3C120,139,240,149,360,176C480,203,600,245,720,245.3C840,245,960,203,1080,176C1200,149,1320,139,1380,133.3L1440,128L1440,320L1380,320C1320,320,1200,320,1080,320C960,320,840,320,720,320C600,320,480,320,360,320C240,320,120,320,60,320L0,320Z"></path>
  <path fill="rgba(255,255,255,1)" d="M0,192L60,192C120,192,240,192,360,213.3C480,235,600,277,720,277.3C840,277,960,235,1080,218.7C1200,203,1320,213,1380,218.7L1440,224L1440,0L1380,0C1320,0,1200,0,1080,0C960,0,840,0,720,0C600,0,480,0,360,0C240,0,120,0,60,0L0,0Z"></path>
</svg>
